<svg width="1432" height="450" viewBox="0 0 1432 450" fill="none" xmlns="http://www.w3.org/2000/svg">
<g clip-path="url(#clip0_306_143)">
<path d="M0 0C0 0 526.5 24.5 718.5 26.5C910.5 28.5 1432 0 1432 0V450H0V0Z" fill="#FDBBC3" fill-opacity="0.5"/>
<circle opacity="0.24" cx="0.5" cy="77.5" r="70.5" stroke="white" stroke-width="14"/>
<circle opacity="0.24" cx="1439.5" cy="153.5" r="70.5" stroke="white" stroke-width="14"/>
<g opacity="0.35">
<path opacity="0.5" d="M1343.5 85.403C1352.87 83.525 1365 76.778 1365 59.333C1365 43.46 1353.38 32.888 1345.03 28.031C1343.17 26.951 1341 28.37 1341 30.515V35.999C1341 40.325 1339.18 48.221 1334.13 51.506C1331.55 53.183 1328.76 50.672 1328.45 47.612L1328.19 45.098C1327.89 42.176 1324.91 40.403 1322.58 42.185C1318.38 45.38 1314 50.99 1314 59.33C1314 80.663 1329.87 86 1337.8 86C1338.26 86 1338.75 85.985 1339.25 85.955C1340.59 85.787 1339.25 86.252 1343.5 85.4" fill="#FF697C"/>
<path d="M1329 75.332C1329 83.192 1335.33 85.622 1339.25 85.958C1340.59 85.79 1339.25 86.255 1343.5 85.403C1346.61 84.302 1350 81.476 1350 75.332C1350 71.441 1347.54 69.038 1345.62 67.913C1345.03 67.568 1344.35 68.003 1344.3 68.681C1344.13 70.835 1342.06 72.551 1340.65 70.913C1339.41 69.467 1338.88 67.352 1338.88 65.999V64.229C1338.88 63.167 1337.81 62.459 1336.89 63.005C1333.48 65.024 1329 69.182 1329 75.332Z" fill="#FF697C"/>
</g>
<g opacity="0.35">
<path opacity="0.5" d="M94.496 226.403C103.874 224.525 116 217.778 116 200.333C116 184.46 104.381 173.888 96.026 169.031C94.169 167.951 92 169.37 92 171.515V176.999C92 181.325 90.182 189.221 85.13 192.506C82.55 194.183 79.76 191.672 79.448 188.612L79.19 186.098C78.89 183.176 75.914 181.403 73.58 183.185C69.383 186.38 65 191.99 65 200.33C65 221.663 80.867 227 88.799 227C89.263 227 89.747 226.985 90.251 226.955C91.589 226.787 90.251 227.252 94.496 226.4" fill="#FF697C"/>
<path d="M80 216.332C80 224.192 86.333 226.622 90.251 226.958C91.589 226.79 90.251 227.255 94.496 226.403C97.613 225.302 101 222.476 101 216.332C101 212.441 98.543 210.038 96.62 208.913C96.032 208.568 95.348 209.003 95.297 209.681C95.129 211.835 93.059 213.551 91.652 211.913C90.407 210.467 89.882 208.352 89.882 206.999V205.229C89.882 204.167 88.811 203.459 87.893 204.005C84.485 206.024 80 210.182 80 216.332Z" fill="#FF697C"/>
</g>
<g opacity="0.35">
<path opacity="0.5" d="M1305.5 190.403C1314.87 188.525 1327 181.778 1327 164.333C1327 148.46 1315.38 137.888 1307.03 133.031C1305.17 131.951 1303 133.37 1303 135.515V140.999C1303 145.325 1301.18 153.221 1296.13 156.506C1293.55 158.183 1290.76 155.672 1290.45 152.612L1290.19 150.098C1289.89 147.176 1286.91 145.403 1284.58 147.185C1280.38 150.38 1276 155.99 1276 164.33C1276 185.663 1291.87 191 1299.8 191C1300.26 191 1300.75 190.985 1301.25 190.955C1302.59 190.787 1301.25 191.252 1305.5 190.4" fill="#FF697C"/>
<path d="M1291 180.332C1291 188.192 1297.33 190.622 1301.25 190.958C1302.59 190.79 1301.25 191.255 1305.5 190.403C1308.61 189.302 1312 186.476 1312 180.332C1312 176.441 1309.54 174.038 1307.62 172.913C1307.03 172.568 1306.35 173.003 1306.3 173.681C1306.13 175.835 1304.06 177.551 1302.65 175.913C1301.41 174.467 1300.88 172.352 1300.88 170.999V169.229C1300.88 168.167 1299.81 167.459 1298.89 168.005C1295.48 170.024 1291 174.182 1291 180.332Z" fill="#FF697C"/>
</g>
<g opacity="0.35">
<path opacity="0.5" d="M157.496 85.403C166.874 83.525 179 76.778 179 59.333C179 43.46 167.381 32.888 159.026 28.031C157.169 26.951 155 28.37 155 30.515V35.999C155 40.325 153.182 48.221 148.13 51.506C145.55 53.183 142.76 50.672 142.448 47.612L142.19 45.098C141.89 42.176 138.914 40.403 136.58 42.185C132.383 45.38 128 50.99 128 59.33C128 80.663 143.867 86 151.799 86C152.263 86 152.747 85.985 153.251 85.955C154.589 85.787 153.251 86.252 157.496 85.4" fill="#FF697C"/>
<path d="M143 75.332C143 83.192 149.333 85.622 153.251 85.958C154.589 85.79 153.251 86.255 157.496 85.403C160.613 84.302 164 81.476 164 75.332C164 71.441 161.543 69.038 159.62 67.913C159.032 67.568 158.348 68.003 158.297 68.681C158.129 70.835 156.059 72.551 154.652 70.913C153.407 69.467 152.882 67.352 152.882 65.999V64.229C152.882 63.167 151.811 62.459 150.893 63.005C147.485 65.024 143 69.182 143 75.332Z" fill="#FF697C"/>
</g>
</g>
<defs>
<clipPath id="clip0_306_143">
<path d="M0 80C0 35.8172 35.8172 0 80 0H1352C1396.18 0 1432 35.8172 1432 80V434C1432 442.837 1424.84 450 1416 450H16C7.16345 450 0 442.837 0 434V80Z" fill="white"/>
</clipPath>
</defs>
</svg>
