<svg width="1432" height="450" viewBox="0 0 1432 450" fill="none" xmlns="http://www.w3.org/2000/svg">
<g clip-path="url(#clip0_296_2)">
<path d="M0 0C0 0 526.5 24.5 718.5 26.5C910.5 28.5 1432 0 1432 0V450H0V0Z" fill="#FDBBC3" fill-opacity="0.5"/>
<circle opacity="0.24" cx="0.5" cy="77.5" r="70.5" stroke="white" stroke-width="14"/>
<circle opacity="0.24" cx="1439.5" cy="153.5" r="70.5" stroke="white" stroke-width="14"/>
<g opacity="0.35">
<path d="M1335 29H1317C1316.2 29 1315.44 29.3161 1314.88 29.8787C1314.32 30.4413 1314 31.2044 1314 32V50C1314 50.7956 1314.32 51.5587 1314.88 52.1213C1315.44 52.6839 1316.2 53 1317 53H1335C1335.8 53 1336.56 52.6839 1337.12 52.1213C1337.68 51.5587 1338 50.7956 1338 50V32C1338 31.2044 1337.68 30.4413 1337.12 29.8787C1336.56 29.3161 1335.8 29 1335 29ZM1365 29H1347C1346.2 29 1345.44 29.3161 1344.88 29.8787C1344.32 30.4413 1344 31.2044 1344 32V50C1344 50.7956 1344.32 51.5587 1344.88 52.1213C1345.44 52.6839 1346.2 53 1347 53H1365C1365.8 53 1366.56 52.6839 1367.12 52.1213C1367.68 51.5587 1368 50.7956 1368 50V32C1368 31.2044 1367.68 30.4413 1367.12 29.8787C1366.56 29.3161 1365.8 29 1365 29ZM1335 59H1317C1316.2 59 1315.44 59.3161 1314.88 59.8787C1314.32 60.4413 1314 61.2044 1314 62V80C1314 80.7956 1314.32 81.5587 1314.88 82.1213C1315.44 82.6839 1316.2 83 1317 83H1335C1335.8 83 1336.56 82.6839 1337.12 82.1213C1337.68 81.5587 1338 80.7956 1338 80V62C1338 61.2044 1337.68 60.4413 1337.12 59.8787C1336.56 59.3161 1335.8 59 1335 59ZM1356 59C1358.35 59 1360.64 59.6887 1362.6 60.9809C1364.56 62.273 1366.1 64.1118 1367.03 66.2695C1367.95 68.4272 1368.23 70.809 1367.81 73.1199C1367.4 75.4308 1366.31 77.5693 1364.69 79.2704C1363.08 80.9716 1361 82.1607 1358.71 82.6905C1356.42 83.2203 1354.03 83.0675 1351.83 82.251C1349.63 81.4345 1347.71 79.9902 1346.32 78.097C1344.94 76.2038 1344.13 73.9449 1344.02 71.6L1344 71L1344.02 70.4C1344.17 67.3251 1345.5 64.427 1347.73 62.3052C1349.96 60.1833 1352.92 59 1356 59Z" fill="#FF697C"/>
</g>
<g opacity="0.35">
<path d="M86 170H68C67.2044 170 66.4413 170.316 65.8787 170.879C65.3161 171.441 65 172.204 65 173V191C65 191.796 65.3161 192.559 65.8787 193.121C66.4413 193.684 67.2044 194 68 194H86C86.7956 194 87.5587 193.684 88.1213 193.121C88.6839 192.559 89 191.796 89 191V173C89 172.204 88.6839 171.441 88.1213 170.879C87.5587 170.316 86.7956 170 86 170ZM116 170H98C97.2044 170 96.4413 170.316 95.8787 170.879C95.3161 171.441 95 172.204 95 173V191C95 191.796 95.3161 192.559 95.8787 193.121C96.4413 193.684 97.2044 194 98 194H116C116.796 194 117.559 193.684 118.121 193.121C118.684 192.559 119 191.796 119 191V173C119 172.204 118.684 171.441 118.121 170.879C117.559 170.316 116.796 170 116 170ZM86 200H68C67.2044 200 66.4413 200.316 65.8787 200.879C65.3161 201.441 65 202.204 65 203V221C65 221.796 65.3161 222.559 65.8787 223.121C66.4413 223.684 67.2044 224 68 224H86C86.7956 224 87.5587 223.684 88.1213 223.121C88.6839 222.559 89 221.796 89 221V203C89 202.204 88.6839 201.441 88.1213 200.879C87.5587 200.316 86.7956 200 86 200ZM107 200C109.348 200 111.644 200.689 113.604 201.981C115.565 203.273 117.103 205.112 118.028 207.27C118.954 209.427 119.226 211.809 118.811 214.12C118.396 216.431 117.313 218.569 115.695 220.27C114.077 221.972 111.995 223.161 109.708 223.69C107.421 224.22 105.028 224.067 102.827 223.251C100.626 222.435 98.7122 220.99 97.3236 219.097C95.9351 217.204 95.1324 214.945 95.015 212.6L95 212L95.015 211.4C95.1689 208.325 96.4988 205.427 98.7296 203.305C100.96 201.183 103.921 200 107 200Z" fill="#FF697C"/>
</g>
<g opacity="0.35">
<path d="M1297 134H1279C1278.2 134 1277.44 134.316 1276.88 134.879C1276.32 135.441 1276 136.204 1276 137V155C1276 155.796 1276.32 156.559 1276.88 157.121C1277.44 157.684 1278.2 158 1279 158H1297C1297.8 158 1298.56 157.684 1299.12 157.121C1299.68 156.559 1300 155.796 1300 155V137C1300 136.204 1299.68 135.441 1299.12 134.879C1298.56 134.316 1297.8 134 1297 134ZM1327 134H1309C1308.2 134 1307.44 134.316 1306.88 134.879C1306.32 135.441 1306 136.204 1306 137V155C1306 155.796 1306.32 156.559 1306.88 157.121C1307.44 157.684 1308.2 158 1309 158H1327C1327.8 158 1328.56 157.684 1329.12 157.121C1329.68 156.559 1330 155.796 1330 155V137C1330 136.204 1329.68 135.441 1329.12 134.879C1328.56 134.316 1327.8 134 1327 134ZM1297 164H1279C1278.2 164 1277.44 164.316 1276.88 164.879C1276.32 165.441 1276 166.204 1276 167V185C1276 185.796 1276.32 186.559 1276.88 187.121C1277.44 187.684 1278.2 188 1279 188H1297C1297.8 188 1298.56 187.684 1299.12 187.121C1299.68 186.559 1300 185.796 1300 185V167C1300 166.204 1299.68 165.441 1299.12 164.879C1298.56 164.316 1297.8 164 1297 164ZM1318 164C1320.35 164 1322.64 164.689 1324.6 165.981C1326.56 167.273 1328.1 169.112 1329.03 171.27C1329.95 173.427 1330.23 175.809 1329.81 178.12C1329.4 180.431 1328.31 182.569 1326.69 184.27C1325.08 185.972 1323 187.161 1320.71 187.69C1318.42 188.22 1316.03 188.067 1313.83 187.251C1311.63 186.435 1309.71 184.99 1308.32 183.097C1306.94 181.204 1306.13 178.945 1306.02 176.6L1306 176L1306.02 175.4C1306.17 172.325 1307.5 169.427 1309.73 167.305C1311.96 165.183 1314.92 164 1318 164Z" fill="#FF697C"/>
</g>
<g opacity="0.35">
<path d="M149 29H131C130.204 29 129.441 29.3161 128.879 29.8787C128.316 30.4413 128 31.2044 128 32V50C128 50.7956 128.316 51.5587 128.879 52.1213C129.441 52.6839 130.204 53 131 53H149C149.796 53 150.559 52.6839 151.121 52.1213C151.684 51.5587 152 50.7956 152 50V32C152 31.2044 151.684 30.4413 151.121 29.8787C150.559 29.3161 149.796 29 149 29ZM179 29H161C160.204 29 159.441 29.3161 158.879 29.8787C158.316 30.4413 158 31.2044 158 32V50C158 50.7956 158.316 51.5587 158.879 52.1213C159.441 52.6839 160.204 53 161 53H179C179.796 53 180.559 52.6839 181.121 52.1213C181.684 51.5587 182 50.7956 182 50V32C182 31.2044 181.684 30.4413 181.121 29.8787C180.559 29.3161 179.796 29 179 29ZM149 59H131C130.204 59 129.441 59.3161 128.879 59.8787C128.316 60.4413 128 61.2044 128 62V80C128 80.7956 128.316 81.5587 128.879 82.1213C129.441 82.6839 130.204 83 131 83H149C149.796 83 150.559 82.6839 151.121 82.1213C151.684 81.5587 152 80.7956 152 80V62C152 61.2044 151.684 60.4413 151.121 59.8787C150.559 59.3161 149.796 59 149 59ZM170 59C172.348 59 174.644 59.6887 176.604 60.9809C178.565 62.273 180.103 64.1118 181.028 66.2695C181.954 68.4272 182.226 70.809 181.811 73.1199C181.396 75.4308 180.313 77.5693 178.695 79.2704C177.077 80.9716 174.995 82.1607 172.708 82.6905C170.421 83.2203 168.028 83.0675 165.827 82.251C163.626 81.4345 161.712 79.9902 160.324 78.097C158.935 76.2038 158.132 73.9449 158.015 71.6L158 71L158.015 70.4C158.169 67.3251 159.499 64.427 161.73 62.3052C163.96 60.1833 166.921 59 170 59Z" fill="#FF697C"/>
</g>
</g>
<defs>
<clipPath id="clip0_296_2">
<path d="M0 80C0 35.8172 35.8172 0 80 0H1352C1396.18 0 1432 35.8172 1432 80V434C1432 442.837 1424.84 450 1416 450H16C7.16345 450 0 442.837 0 434V80Z" fill="white"/>
</clipPath>
</defs>
</svg>
