<svg width="1432" height="450" viewBox="0 0 1432 450" fill="none" xmlns="http://www.w3.org/2000/svg">
<g clip-path="url(#clip0_296_2)">
<path d="M0 0C0 0 526.5 24.5 718.5 26.5C910.5 28.5 1432 0 1432 0V450H0V0Z" fill="#FDBBC3" fill-opacity="0.5"/>
<circle opacity="0.58" cx="0.5" cy="77.5" r="70.5" stroke="white" stroke-width="14"/>
<circle opacity="0.58" cx="1439.5" cy="153.5" r="70.5" stroke="white" stroke-width="14"/>
<circle opacity="0.24" cx="1333.5" cy="48.5" r="28.5" fill="#FF697C"/>
<circle opacity="0.24" cx="119.5" cy="153.5" r="28.5" fill="#FF697C"/>
<circle opacity="0.24" cx="1286" cy="144" r="19" fill="#FF697C"/>
<circle opacity="0.24" cx="167" cy="49" r="19" fill="#FF697C"/>
</g>
<defs>
<clipPath id="clip0_296_2">
<path d="M0 80C0 35.8172 35.8172 0 80 0H1352C1396.18 0 1432 35.8172 1432 80V434C1432 442.837 1424.84 450 1416 450H16C7.16345 450 0 442.837 0 434V80Z" fill="white"/>
</clipPath>
</defs>
</svg>
