<svg width="1432" height="450" viewBox="0 0 1432 450" fill="none" xmlns="http://www.w3.org/2000/svg">
<g clip-path="url(#clip0_306_155)">
<path d="M0 0C0 0 526.5 24.5 718.5 26.5C910.5 28.5 1432 0 1432 0V450H0V0Z" fill="#FDBBC3" fill-opacity="0.5"/>
<circle opacity="0.24" cx="0.5" cy="77.5" r="70.5" stroke="white" stroke-width="14"/>
<circle opacity="0.24" cx="1439.5" cy="153.5" r="70.5" stroke="white" stroke-width="14"/>
<g opacity="0.35">
<path d="M1360.45 70.3009C1356.35 71.2855 1352.07 71.2378 1347.99 70.1621C1343.91 69.0863 1340.17 67.0161 1337.08 64.1369C1334 61.2576 1331.68 57.6591 1330.34 53.6637C1328.99 49.6683 1328.65 45.4006 1329.35 41.2429C1329.25 41.3482 1329.14 41.4455 1329.02 41.5339C1328.18 42.1729 1327.13 42.4099 1325.03 42.8839L1323.12 43.3159C1315.74 44.9869 1312.05 45.8209 1311.17 48.6439C1310.3 51.4639 1312.81 54.4069 1317.84 60.2899L1319.14 61.8109C1320.57 63.4819 1321.29 64.3189 1321.61 65.3509C1321.93 66.3859 1321.82 67.5019 1321.61 69.7309L1321.41 71.7619C1320.65 79.6129 1320.27 83.5369 1322.57 85.2799C1324.86 87.0229 1328.32 85.4359 1335.23 82.2529L1337.02 81.4309C1338.98 80.5249 1339.96 80.0749 1341 80.0749C1342.04 80.0749 1343.02 80.5249 1344.99 81.4309L1346.77 82.2529C1353.68 85.4329 1357.14 87.0229 1359.43 85.2829C1361.73 83.5369 1361.35 79.6129 1360.59 71.7619L1360.45 70.3009Z" fill="#FF697C"/>
<path opacity="0.5" d="M1332.46 36.224L1331.48 37.988C1330.4 39.926 1329.86 40.895 1329.02 41.534C1329.14 41.444 1329.25 41.347 1329.35 41.243C1328.65 45.401 1328.99 49.669 1330.34 53.6648C1331.68 57.6605 1334 61.2592 1337.09 64.1385C1340.17 67.0179 1343.91 69.088 1347.99 70.1635C1352.07 71.239 1356.35 71.2862 1360.45 70.301L1360.39 69.731C1360.18 67.502 1360.07 66.386 1360.39 65.351C1360.71 64.319 1361.43 63.482 1362.86 61.811L1364.16 60.29C1369.19 54.41 1371.71 51.467 1370.83 48.644C1369.95 45.821 1366.26 44.984 1358.88 43.316L1356.97 42.884C1354.88 42.41 1353.83 42.173 1352.98 41.534C1352.14 40.895 1351.6 39.926 1350.52 37.988L1349.54 36.224C1345.74 29.408 1343.84 26 1341 26C1338.16 26 1336.26 29.408 1332.46 36.224Z" fill="#FF697C"/>
</g>
<g opacity="0.35">
<path d="M1322.45 175.301C1318.35 176.286 1314.07 176.238 1309.99 175.162C1305.91 174.086 1302.17 172.016 1299.08 169.137C1296 166.258 1293.68 162.659 1292.34 158.664C1290.99 154.668 1290.65 150.401 1291.35 146.243C1291.25 146.348 1291.14 146.445 1291.02 146.534C1290.18 147.173 1289.13 147.41 1287.03 147.884L1285.12 148.316C1277.74 149.987 1274.05 150.821 1273.17 153.644C1272.3 156.464 1274.81 159.407 1279.84 165.29L1281.14 166.811C1282.57 168.482 1283.29 169.319 1283.61 170.351C1283.93 171.386 1283.82 172.502 1283.61 174.731L1283.41 176.762C1282.65 184.613 1282.27 188.537 1284.57 190.28C1286.86 192.023 1290.32 190.436 1297.23 187.253L1299.02 186.431C1300.98 185.525 1301.96 185.075 1303 185.075C1304.04 185.075 1305.02 185.525 1306.99 186.431L1308.77 187.253C1315.68 190.433 1319.14 192.023 1321.43 190.283C1323.73 188.537 1323.35 184.613 1322.59 176.762L1322.45 175.301Z" fill="#FF697C"/>
<path opacity="0.5" d="M1294.46 141.224L1293.48 142.988C1292.4 144.926 1291.86 145.895 1291.02 146.534C1291.14 146.444 1291.25 146.347 1291.35 146.243C1290.65 150.401 1290.99 154.669 1292.34 158.665C1293.68 162.66 1296 166.259 1299.09 169.139C1302.17 172.018 1305.91 174.088 1309.99 175.163C1314.07 176.239 1318.35 176.286 1322.45 175.301L1322.39 174.731C1322.18 172.502 1322.07 171.386 1322.39 170.351C1322.71 169.319 1323.43 168.482 1324.86 166.811L1326.16 165.29C1331.19 159.41 1333.71 156.467 1332.83 153.644C1331.95 150.821 1328.26 149.984 1320.88 148.316L1318.97 147.884C1316.88 147.41 1315.83 147.173 1314.98 146.534C1314.14 145.895 1313.6 144.926 1312.52 142.988L1311.54 141.224C1307.74 134.408 1305.84 131 1303 131C1300.16 131 1298.26 134.408 1294.46 141.224Z" fill="#FF697C"/>
</g>
<g opacity="0.35">
<path d="M174.449 70.3009C170.349 71.2855 166.068 71.2378 161.991 70.1621C157.913 69.0863 154.166 67.0161 151.085 64.1369C148.004 61.2576 145.685 57.6591 144.336 53.6637C142.986 49.6683 142.649 45.4006 143.354 41.2429C143.249 41.3482 143.135 41.4455 143.015 41.5339C142.175 42.1729 141.125 42.4099 139.025 42.8839L137.12 43.3159C129.74 44.9869 126.05 45.8209 125.171 48.6439C124.295 51.4639 126.809 54.4069 131.84 60.2899L133.142 61.8109C134.57 63.4819 135.287 64.3189 135.608 65.3509C135.929 66.3859 135.821 67.5019 135.605 69.7309L135.407 71.7619C134.648 79.6129 134.267 83.5369 136.565 85.2799C138.863 87.0229 142.319 85.4359 149.225 82.2529L151.016 81.4309C152.978 80.5249 153.959 80.0749 155 80.0749C156.041 80.0749 157.022 80.5249 158.987 81.4309L160.772 82.2529C167.681 85.4329 171.137 87.0229 173.432 85.2829C175.733 83.5369 175.352 79.6129 174.593 71.7619L174.449 70.3009Z" fill="#FF697C"/>
<path opacity="0.5" d="M146.459 36.224L145.475 37.988C144.395 39.926 143.855 40.895 143.015 41.534C143.135 41.444 143.248 41.347 143.354 41.243C142.649 45.401 142.986 49.669 144.335 53.6648C145.685 57.6605 148.004 61.2592 151.085 64.1385C154.167 67.0179 157.914 69.088 161.992 70.1635C166.07 71.239 170.351 71.2862 174.452 70.301L174.392 69.731C174.179 67.502 174.071 66.386 174.392 65.351C174.713 64.319 175.427 63.482 176.858 61.811L178.16 60.29C183.191 54.41 185.705 51.467 184.826 48.644C183.95 45.821 180.26 44.984 172.88 43.316L170.972 42.884C168.875 42.41 167.825 42.173 166.982 41.534C166.142 40.895 165.602 39.926 164.522 37.988L163.541 36.224C159.74 29.408 157.841 26 155 26C152.159 26 150.26 29.408 146.459 36.224Z" fill="#FF697C"/>
</g>
<g opacity="0.35">
<path d="M111.449 211.301C107.349 212.286 103.068 212.238 98.9905 211.162C94.913 210.086 91.1659 208.016 88.0847 205.137C85.0036 202.258 82.6847 198.659 81.3356 194.664C79.9864 190.668 79.6493 186.401 80.3542 182.243C80.2486 182.348 80.1353 182.445 80.0152 182.534C79.1752 183.173 78.1252 183.41 76.0252 183.884L74.1202 184.316C66.7402 185.987 63.0502 186.821 62.1712 189.644C61.2952 192.464 63.8092 195.407 68.8402 201.29L70.1422 202.811C71.5702 204.482 72.2872 205.319 72.6082 206.351C72.9292 207.386 72.8212 208.502 72.6052 210.731L72.4072 212.762C71.6482 220.613 71.2672 224.537 73.5652 226.28C75.8632 228.023 79.3192 226.436 86.2252 223.253L88.0162 222.431C89.9782 221.525 90.9592 221.075 92.0002 221.075C93.0412 221.075 94.0222 221.525 95.9872 222.431L97.7722 223.253C104.681 226.433 108.137 228.023 110.432 226.283C112.733 224.537 112.352 220.613 111.593 212.762L111.449 211.301Z" fill="#FF697C"/>
<path opacity="0.5" d="M83.4591 177.224L82.4751 178.988C81.3951 180.926 80.8551 181.895 80.0151 182.534C80.1351 182.444 80.2481 182.347 80.3541 182.243C79.6489 186.401 79.9861 190.669 81.3354 194.665C82.6846 198.66 85.0039 202.259 88.0854 205.139C91.1669 208.018 94.9144 210.088 98.9924 211.163C103.07 212.239 107.351 212.286 111.452 211.301L111.392 210.731C111.179 208.502 111.071 207.386 111.392 206.351C111.713 205.319 112.427 204.482 113.858 202.811L115.16 201.29C120.191 195.41 122.705 192.467 121.826 189.644C120.95 186.821 117.26 185.984 109.88 184.316L107.972 183.884C105.875 183.41 104.825 183.173 103.982 182.534C103.142 181.895 102.602 180.926 101.522 178.988L100.541 177.224C96.7401 170.408 94.8411 167 92.0001 167C89.1591 167 87.2601 170.408 83.4591 177.224Z" fill="#FF697C"/>
</g>
</g>
<defs>
<clipPath id="clip0_306_155">
<path d="M0 80C0 35.8172 35.8172 0 80 0H1352C1396.18 0 1432 35.8172 1432 80V434C1432 442.837 1424.84 450 1416 450H16C7.16345 450 0 442.837 0 434V80Z" fill="white"/>
</clipPath>
</defs>
</svg>
