<svg width="24" height="24" viewBox="0 0 24 24" fill="none" xmlns="http://www.w3.org/2000/svg">
<path d="M17.7071 13.7071L20.3552 16.3552C20.7113 16.7113 20.7113 17.2887 20.3552 17.6448C18.43 19.57 15.3821 19.7866 13.204 18.153L11.6286 16.9714C9.88504 15.6638 8.33622 14.115 7.02857 12.3714L5.84701 10.796C4.21341 8.61788 4.43001 5.56999 6.35523 3.64477C6.71133 3.28867 7.28867 3.28867 7.64477 3.64477L10.2929 6.29289C10.6834 6.68342 10.6834 7.31658 10.2929 7.70711L9.27175 8.72825C9.10946 8.89054 9.06923 9.13846 9.17187 9.34373C10.3585 11.7171 12.2829 13.6415 14.6563 14.8281C14.8615 14.9308 15.1095 14.8905 15.2717 14.7283L16.2929 13.7071C16.6834 13.3166 17.3166 13.3166 17.7071 13.7071Z" fill="#FDBBC3"/>
<path d="M16.2924 13.7068C16.6829 13.3163 17.3169 13.3163 17.7075 13.7068L20.3549 16.3553C20.711 16.7113 20.7109 17.2882 20.3549 17.6443C20.0619 17.9374 19.7428 18.1907 19.4047 18.4041L15.4995 14.4988L16.2924 13.7068ZM6.36469 3.63456C6.72146 3.28831 7.29214 3.29164 7.64496 3.64432L10.2924 6.29276C10.6829 6.68328 10.6829 7.3163 10.2924 7.70682L9.49945 8.49881L5.59515 4.59452C5.80425 4.26328 6.05173 3.95006 6.33734 3.6619L6.36469 3.63456Z" fill="#FF697C"/>
</svg>
