<svg width="24" height="24" viewBox="0 0 24 24" fill="none" xmlns="http://www.w3.org/2000/svg">
<path d="M14 4V6.5C14 7.32843 14.6716 8 15.5 8C16.3284 8 17 7.32843 17 6.5V4.01953C17.5395 4.04235 17.9284 4.09204 18.2715 4.20703C19.4607 4.60568 20.3943 5.53931 20.793 6.72852C21.0003 7.34719 21 8.11442 21 9.64746C21 9.74269 21.0001 9.79056 20.9873 9.8291C20.9624 9.90344 20.9034 9.96239 20.8291 9.9873C20.7906 10.0001 20.7427 10 20.6475 10H3.35254C3.25731 10 3.20944 10.0001 3.1709 9.9873C3.09656 9.96239 3.03761 9.90344 3.0127 9.8291C2.99988 9.79056 3 9.74269 3 9.64746C3 8.11442 2.99967 7.34719 3.20703 6.72852C3.60568 5.53931 4.53931 4.60568 5.72852 4.20703C6.07159 4.09204 6.4605 4.04235 7 4.01953V6.5C7 7.32843 7.67158 8 8.5 8C9.32843 8 10 7.32843 10 6.5V4H14Z" fill="#FF697C"/>
<path d="M3 11.5C3 11.2643 3 11.1464 3.07322 11.0732C3.14645 11 3.2643 11 3.5 11H20.5C20.7357 11 20.8536 11 20.9268 11.0732C21 11.1464 21 11.2643 21 11.5V12C21 15.7712 21 17.6569 19.8284 18.8284C18.6569 20 16.7712 20 13 20H11C7.22876 20 5.34315 20 4.17157 18.8284C3 17.6569 3 15.7712 3 12V11.5Z" fill="#FDBBC3"/>
<path d="M8.5 2.5L8.5 6.5" stroke="#FF697C" stroke-linecap="round"/>
<path d="M15.5 2.5L15.5 6.5" stroke="#FF697C" stroke-linecap="round"/>
</svg>
