<svg width="24" height="24" viewBox="0 0 24 24" fill="none" xmlns="http://www.w3.org/2000/svg">
<path fill-rule="evenodd" clip-rule="evenodd" d="M20 5C20 4.44772 19.5523 4 19 4H5C4.44772 4 4 4.44772 4 5V6.58579C4 6.851 4.10536 7.10536 4.29289 7.29289L8.7071 11.7071C8.89464 11.8946 8.99999 12.149 8.99999 12.4142V19.3063C8.99999 19.6476 9.33434 19.8886 9.65811 19.7806L14.6581 18.114C14.8623 18.0459 15 17.8548 15 17.6396V12.4142C15 12.149 15.1054 11.8946 15.2929 11.7071L19.7071 7.29289C19.8946 7.10536 20 6.851 20 6.58579V5Z" fill="#FDBBC3"/>
<path d="M9.65811 19.7806L9.84784 20.3498L9.84784 20.3498L9.65811 19.7806ZM14.6581 18.114L14.8478 18.6832L14.8478 18.6832L14.6581 18.114ZM19.7071 7.29289L20.1314 7.71716L19.7071 7.29289ZM15.2929 11.7071L14.8686 11.2828L15.2929 11.7071ZM5 4V4.6H19V4V3.4H5V4ZM4 6.58579H4.6V5H4H3.4V6.58579H4ZM8.7071 11.7071L9.13136 11.2828L4.71716 6.86863L4.29289 7.29289L3.86863 7.71716L8.28284 12.1314L8.7071 11.7071ZM8.99999 12.4142H8.39999V19.3063H8.99999H9.59999V12.4142H8.99999ZM8.99999 19.3063H8.39999C8.39999 20.0571 9.13556 20.5873 9.84784 20.3498L9.65811 19.7806L9.46837 19.2114C9.53312 19.1898 9.59999 19.238 9.59999 19.3063H8.99999ZM9.65811 19.7806L9.84784 20.3498L14.8478 18.6832L14.6581 18.114L14.4684 17.5448L9.46837 19.2114L9.65811 19.7806ZM14.6581 18.114L14.8478 18.6832C15.297 18.5335 15.6 18.1131 15.6 17.6396H15H14.4C14.4 17.5966 14.4275 17.5584 14.4684 17.5448L14.6581 18.114ZM15 17.6396H15.6V12.4142H15H14.4V17.6396H15ZM19.7071 7.29289L19.2828 6.86863L14.8686 11.2828L15.2929 11.7071L15.7172 12.1314L20.1314 7.71716L19.7071 7.29289ZM20 5H19.4V6.58579H20H20.6V5H20ZM19.7071 7.29289L20.1314 7.71716C20.4314 7.4171 20.6 7.01013 20.6 6.58579H20H19.4C19.4 6.69187 19.3579 6.79361 19.2828 6.86863L19.7071 7.29289ZM15 12.4142H15.6C15.6 12.3081 15.6421 12.2064 15.7172 12.1314L15.2929 11.7071L14.8686 11.2828C14.5686 11.5829 14.4 11.9899 14.4 12.4142H15ZM8.7071 11.7071L8.28284 12.1314C8.35785 12.2064 8.39999 12.3081 8.39999 12.4142H8.99999H9.59999C9.59999 11.9899 9.43142 11.5829 9.13136 11.2828L8.7071 11.7071ZM4 6.58579H3.4C3.4 7.01013 3.56857 7.4171 3.86863 7.71716L4.29289 7.29289L4.71716 6.86863C4.64214 6.79361 4.6 6.69187 4.6 6.58579H4ZM19 4V4.6C19.2209 4.6 19.4 4.77909 19.4 5H20H20.6C20.6 4.11634 19.8837 3.4 19 3.4V4ZM5 4V3.4C4.11634 3.4 3.4 4.11634 3.4 5H4H4.6C4.6 4.77909 4.77909 4.6 5 4.6V4Z" fill="#FF697C"/>
</svg>
