<svg width="24" height="24" viewBox="0 0 24 24" fill="none" xmlns="http://www.w3.org/2000/svg">
<path fill-rule="evenodd" clip-rule="evenodd" d="M5.05847 12C5.02618 12 5 12.0262 5 12.0585V12.0585V19C5 19.9428 5 20.4142 5.29289 20.7071C5.58579 21 6.05719 21 7 21H17C17.9428 21 18.4142 21 18.7071 20.7071C19 20.4142 19 19.9428 19 19V12.0585V12.0585C19 12.0262 18.9738 12 18.9415 12H17.6934C17.6858 12 17.6782 12 17.6704 12C17.5285 12.0001 17.3486 12.0001 17.1895 11.9824C16.9965 11.9609 16.7418 11.9054 16.4922 11.7324V11.7324C16.4293 11.6889 16.3452 11.6879 16.2813 11.7299C16.0493 11.8826 15.8068 11.9424 15.6191 11.9688C15.3949 12.0002 15.1299 12.0001 14.9035 12C14.8913 12 14.8792 12 14.8672 12H13.3828C13.3699 12 13.3568 12 13.3435 12C13.1665 12.0002 12.9522 12.0003 12.7656 11.9766V11.9766C12.3377 11.922 12.1237 11.8947 12.121 11.8944C11.6773 11.8403 12.3227 11.8403 11.879 11.8944C11.8763 11.8947 11.6623 11.922 11.2344 11.9766V11.9766C11.0478 12.0003 10.8335 12.0002 10.6565 12C10.6432 12 10.6301 12 10.6172 12H9.13281C9.12082 12 9.1087 12 9.09647 12C8.8701 12.0001 8.60511 12.0002 8.38086 11.9688C8.19289 11.9423 7.94951 11.8828 7.71707 11.7295C7.6536 11.6877 7.57029 11.6891 7.50781 11.7324V11.7324C7.25818 11.9054 7.00346 11.9609 6.81055 11.9824C6.65138 12.0001 6.47154 12.0001 6.32962 12C6.32185 12 6.31418 12 6.30664 12H5.05847ZM5.93366 11C5.43742 11 4.9946 10.5553 5.22166 10.1141V10.1141C5.44333 9.68334 5.8539 9.39007 6.67505 8.80354L9.67505 6.66068C10.7977 5.85877 11.3591 5.45781 12 5.45781C12.6409 5.45781 13.2023 5.85877 14.325 6.66068L17.325 8.80354C18.1461 9.39007 18.5567 9.68334 18.7783 10.1141V10.1141C19.0054 10.5553 18.5626 11 18.0663 11H17.6934L17.4707 10.999C17.2763 10.9948 17.1578 10.9779 17.0615 10.9111C16.9334 10.8223 16.8746 10.6657 16.7575 10.3532L16.7568 10.3516L16.0967 8.59082C15.8771 8.00519 15.767 7.71213 15.6807 7.7334C15.5946 7.75467 15.6332 8.06342 15.7104 8.68089L15.7109 8.68555L15.8594 9.87598L15.8597 9.87827C15.925 10.4006 15.9577 10.6622 15.8086 10.8311L15.7471 10.8867C15.6344 10.9678 15.4694 10.9905 15.2158 10.9971L14.8672 11H13.3828L13.1045 10.998C12.8615 10.9922 12.7167 10.9688 12.6104 10.875C12.4689 10.7501 12.4429 10.542 12.391 10.1268L12.3906 10.124L12.1982 8.58789L12.1976 8.58262C12.1246 7.99852 12.088 7.70606 12 7.70606C11.912 7.70606 11.8754 7.99852 11.8024 8.58262L11.8018 8.58789L11.7949 8.6377L11.6094 10.124L11.609 10.1268C11.5571 10.542 11.5311 10.7501 11.3896 10.875L11.333 10.916C11.2323 10.976 11.0981 10.9932 10.8955 10.998L10.6172 11H9.13281L8.78418 10.9971C8.48009 10.9892 8.30339 10.9579 8.19141 10.8311C8.04235 10.6622 8.07504 10.4006 8.14034 9.87827L8.14062 9.87598L8.28906 8.68555L8.28964 8.6809C8.36683 8.06343 8.40542 7.75467 8.31934 7.7334C8.233 7.71213 8.12293 8.00519 7.90332 8.59082L7.24316 10.3516L7.24254 10.3532C7.12538 10.6657 7.06664 10.8223 6.93848 10.9111L6.8877 10.9404C6.80013 10.9829 6.69109 10.9955 6.5293 10.999L6.30664 11H5.93366Z" fill="#FDBBC3"/>
<path d="M4.62127 4.51493C4.80316 3.78737 4.8941 3.42359 5.16536 3.21179C5.43663 3 5.8116 3 6.56155 3H17.4384C18.1884 3 18.5634 3 18.8346 3.21179C19.1059 3.42359 19.1968 3.78737 19.3787 4.51493L20.8447 10.3787C20.9162 10.6647 20.9519 10.8077 20.8769 10.9039C20.8018 11 20.6544 11 20.3596 11H17.744C17.3856 11 17.2064 11 17.0736 10.9011C16.9407 10.8023 16.8892 10.6306 16.7862 10.2873L16.0975 7.99155C15.8809 7.26969 15.7726 6.90876 15.6835 6.92642C15.5944 6.94407 15.6319 7.31902 15.7069 8.06892L15.89 9.9005C15.9414 10.4142 15.9671 10.671 15.8182 10.8355C15.6694 11 15.4112 11 14.895 11H13.405C12.9749 11 12.7598 11 12.617 10.8707C12.4741 10.7415 12.4527 10.5275 12.41 10.0995L12.199 7.99008C12.1267 7.26668 12.0905 6.90499 12 6.90499C11.9095 6.90499 11.8733 7.26668 11.801 7.99007L11.59 10.0995C11.5473 10.5275 11.5259 10.7415 11.383 10.8707C11.2402 11 11.0251 11 10.595 11H9.10499C8.58875 11 8.33064 11 8.18177 10.8355C8.0329 10.671 8.05858 10.4142 8.10995 9.9005L8.29311 8.06892C8.3681 7.31902 8.40559 6.94407 8.31648 6.92642C8.22737 6.90876 8.11909 7.26969 7.90254 7.99155L7.2138 10.2873C7.11081 10.6306 7.05931 10.8023 6.92645 10.9011C6.79359 11 6.61438 11 6.25597 11H3.64039C3.3456 11 3.19821 11 3.12314 10.9039C3.04807 10.8077 3.08382 10.6647 3.15532 10.3787L4.62127 4.51493Z" fill="#FF697C"/>
<path d="M12.5 15H11.5C10.3954 15 9.5 15.8954 9.5 17V20.85C9.5 20.9328 9.56716 21 9.65 21H14.35C14.4328 21 14.5 20.9328 14.5 20.85V17C14.5 15.8954 13.6046 15 12.5 15Z" fill="#FF697C"/>
</svg>
