<svg width="22" height="23" viewBox="0 0 22 23" fill="none" xmlns="http://www.w3.org/2000/svg">
<g clip-path="url(#clip0_4518_984)">
<path d="M6.59801 7.692V6.224C6.59722 5.64578 6.71051 5.07309 6.93139 4.53872C7.15227 4.00435 7.4764 3.51881 7.88521 3.1099C8.29403 2.701 8.7795 2.37676 9.31381 2.15576C9.84813 1.93476 10.4208 1.82134 10.999 1.822C11.5773 1.82121 12.1501 1.93453 12.6845 2.15547C13.219 2.37641 13.7045 2.70063 14.1135 3.10955C14.5224 3.51847 14.8466 4.00406 15.0675 4.53849C15.2885 5.07292 15.4018 5.64569 15.401 6.224V7.692M3.66401 7.692H18.335C19.89 7.692 21.055 9.12999 20.722 10.646L18.922 19.059C18.7804 19.7144 18.4189 20.3017 17.8977 20.7235C17.3764 21.1453 16.7266 21.3762 16.056 21.378H5.94301C5.27197 21.3781 4.62123 21.1478 4.09957 20.7257C3.57791 20.3037 3.21695 19.7153 3.07701 19.059L1.27701 10.646C1.20029 10.29 1.20424 9.92127 1.28858 9.56696C1.37293 9.21265 1.53551 8.88172 1.76442 8.59843C1.99333 8.31515 2.28275 8.08671 2.61145 7.92986C2.94016 7.77301 3.2998 7.69173 3.66401 7.692Z" fill="#FFDEE2"/>
<path d="M6.59801 7.692V6.224C6.59722 5.64578 6.71051 5.07309 6.93139 4.53872C7.15227 4.00435 7.4764 3.51881 7.88521 3.1099C8.29403 2.701 8.7795 2.37676 9.31381 2.15576C9.84813 1.93476 10.4208 1.82134 10.999 1.822C11.5773 1.82121 12.1501 1.93453 12.6845 2.15547C13.219 2.37641 13.7045 2.70063 14.1135 3.10955C14.5224 3.51847 14.8466 4.00406 15.0675 4.53849C15.2885 5.07292 15.4018 5.64569 15.401 6.224V7.692M3.66401 7.692H18.335C19.89 7.692 21.055 9.12999 20.722 10.646L18.922 19.059C18.7804 19.7144 18.4189 20.3017 17.8977 20.7235C17.3764 21.1453 16.7266 21.3762 16.056 21.378H5.94301C5.27197 21.3781 4.62123 21.1478 4.09957 20.7257C3.57791 20.3037 3.21695 19.7153 3.07701 19.059L1.27701 10.646C1.20029 10.29 1.20424 9.92127 1.28858 9.56696C1.37293 9.21265 1.53551 8.88172 1.76442 8.59843C1.99333 8.31515 2.28275 8.08671 2.61145 7.92986C2.94016 7.77301 3.2998 7.69173 3.66401 7.692Z" stroke="#FF697C" stroke-width="2" stroke-linecap="round" stroke-linejoin="round"/>
</g>
<defs>
<clipPath id="clip0_4518_984">
<rect width="22" height="22" fill="white" transform="translate(0 0.600006)"/>
</clipPath>
</defs>
</svg>
