<svg width="22" height="22" viewBox="0 0 22 22" fill="none" xmlns="http://www.w3.org/2000/svg">
<g clip-path="url(#clip0_4528_224)">
<path d="M6.59801 7.09199V5.62399C6.59722 5.04577 6.71051 4.47308 6.93139 3.93871C7.15227 3.40435 7.4764 2.91881 7.88521 2.5099C8.29403 2.10099 8.7795 1.77675 9.31381 1.55575C9.84813 1.33475 10.4208 1.22133 10.999 1.22199C11.5773 1.2212 12.1501 1.33452 12.6845 1.55546C13.219 1.7764 13.7045 2.10062 14.1135 2.50954C14.5224 2.91846 14.8466 3.40405 15.0675 3.93848C15.2885 4.47291 15.4018 5.04569 15.401 5.62399V7.09199M3.66401 7.09199H18.335C19.89 7.09199 21.055 8.52999 20.722 10.046L18.922 18.459C18.7804 19.1144 18.4189 19.7017 17.8977 20.1235C17.3764 20.5453 16.7266 20.7762 16.056 20.778H5.94301C5.27197 20.7781 4.62123 20.5478 4.09957 20.1257C3.57791 19.7036 3.21695 19.1153 3.07701 18.459L1.27701 10.046C1.20029 9.68995 1.20424 9.32126 1.28858 8.96695C1.37293 8.61264 1.53551 8.28171 1.76442 7.99843C1.99333 7.71515 2.28275 7.4867 2.61145 7.32985C2.94016 7.173 3.2998 7.09173 3.66401 7.09199Z" stroke="white" stroke-width="1.5" stroke-linecap="round" stroke-linejoin="round"/>
</g>
<defs>
<clipPath id="clip0_4528_224">
<rect width="22" height="22" fill="white"/>
</clipPath>
</defs>
</svg>
