<svg width="22" height="22" viewBox="0 0 22 22" fill="none" xmlns="http://www.w3.org/2000/svg">
<path d="M20 10.5V16C20 17.8856 20 18.8284 19.4142 19.4142C18.8284 20 17.8856 20 16 20H5.63889C4.18147 20 3 18.8185 3 17.3611M3 17.3611V5C3 3.11438 3 2.17157 3.58579 1.58579C4.17157 1 5.11438 1 7 1H16C17.8856 1 18.8284 1 19.4142 1.58579C20 2.17157 20 3.11438 20 5V10.7222C20 12.6078 20 13.5506 19.4142 14.1364C18.8284 14.7222 17.8856 14.7222 16 14.7222H5.63889C4.18147 14.7222 3 15.9037 3 17.3611Z" stroke="#798486" stroke-width="1.5"/>
<path d="M8 6L15 6" stroke="#798486" stroke-width="1.5" stroke-linecap="round"/>
</svg>
