<svg width="22" height="22" viewBox="0 0 22 22" fill="none" xmlns="http://www.w3.org/2000/svg">
<path d="M9.25 2.75H3.75V8.25H9.25V2.75Z" stroke="#798486" stroke-width="1.5"/>
<path d="M15.5 8.25C17.0188 8.25 18.25 7.01878 18.25 5.5C18.25 3.98122 17.0188 2.75 15.5 2.75C13.9812 2.75 12.75 3.98122 12.75 5.5C12.75 7.01878 13.9812 8.25 15.5 8.25Z" stroke="#798486" stroke-width="1.5"/>
<path d="M6.5 19.25C8.01878 19.25 9.25 18.0188 9.25 16.5C9.25 14.9812 8.01878 13.75 6.5 13.75C4.98122 13.75 3.75 14.9812 3.75 16.5C3.75 18.0188 4.98122 19.25 6.5 19.25Z" stroke="#798486" stroke-width="1.5"/>
<path d="M18.25 13.75H12.75V19.25H18.25V13.75Z" stroke="#798486" stroke-width="1.5"/>
</svg>
