<svg width="22" height="22" viewBox="0 0 22 22" fill="none" xmlns="http://www.w3.org/2000/svg">
<g clip-path="url(#clip0_4533_224)">
<path d="M8 14.458C9.99999 14.4513 12 14.4513 14 14.458Z" fill="#FFEFE9"/>
<path d="M11.0015 16.9964C11.0015 15.0004 11.0015 15 11.0015 13.5M2.87398 6.37438L8.49898 1.87838C9.20914 1.3098 10.0918 1 11.0015 1C11.9112 1 12.7938 1.3098 13.504 1.87838L19.13 6.38438C19.7141 6.8537 20.1855 7.44807 20.5095 8.12372C20.8335 8.79936 21.0018 9.53907 21.002 10.2884V16.9964C21.0021 17.5223 20.8986 18.0431 20.6974 18.529C20.4961 19.0149 20.2011 19.4564 19.8292 19.8283C19.4572 20.2001 19.0157 20.495 18.5297 20.6961C18.0437 20.8973 17.5229 21.0006 16.997 21.0004H5.00498C4.47905 21.0006 3.95822 20.8973 3.47226 20.6961C2.98629 20.495 2.54473 20.2001 2.17279 19.8283C1.80085 19.4564 1.50583 19.0149 1.3046 18.529C1.10336 18.0431 0.999852 17.5223 0.999984 16.9964V10.2884C1.00021 9.53907 1.16851 8.79936 1.49249 8.12372C1.81646 7.44807 2.28787 6.8537 2.87198 6.38438L2.87398 6.37438Z" stroke="#333333" stroke-width="1.5" stroke-linecap="round" stroke-linejoin="round"/>
</g>
<defs>
<clipPath id="clip0_4533_224">
<rect width="22" height="22" fill="white"/>
</clipPath>
</defs>
</svg>
