<svg width="22" height="22" viewBox="0 0 22 22" fill="none" xmlns="http://www.w3.org/2000/svg">
<g clip-path="url(#clip0_4518_936)">
<path d="M2.873 6.374L8.498 1.878C9.20816 1.30942 10.0908 0.999619 11.0005 0.999619C11.9102 0.999619 12.7928 1.30942 13.503 1.878L19.129 6.384C19.7131 6.85332 20.1845 7.44769 20.5085 8.12334C20.8325 8.79898 21.0008 9.53869 21.001 10.288V16.996C21.0011 17.5218 20.8977 18.0426 20.6965 18.5284C20.4953 19.0143 20.2004 19.4557 19.8285 19.8275C19.4567 20.1994 19.0153 20.4943 18.5294 20.6955C18.0436 20.8966 17.5228 21.0001 16.997 21H5.005C4.47907 21.0003 3.95824 20.8969 3.47227 20.6958C2.98631 20.4947 2.54474 20.1997 2.1728 19.8279C1.80087 19.4561 1.50585 19.0146 1.30461 18.5286C1.10338 18.0427 0.999869 17.5219 1 16.996V10.288C1.00023 9.53869 1.16853 8.79898 1.4925 8.12334C1.81648 7.44769 2.28788 6.85332 2.872 6.384L2.873 6.374Z" fill="#FFDEE2"/>
<path d="M8 14.458C9.99999 14.4513 12 14.4513 14 14.458Z" fill="#FFEFE9"/>
<path d="M8 14.458C9.99999 14.4513 12 14.4513 14 14.458M2.874 6.374L8.499 1.878C9.20916 1.30942 10.0918 0.999619 11.0015 0.999619C11.9112 0.999619 12.7938 1.30942 13.504 1.878L19.13 6.384C19.7141 6.85332 20.1855 7.44769 20.5095 8.12334C20.8335 8.79898 21.0018 9.53869 21.002 10.288V16.996C21.0021 17.5219 20.8986 18.0427 20.6974 18.5286C20.4961 19.0146 20.2011 19.4561 19.8292 19.8279C19.4573 20.1997 19.0157 20.4947 18.5297 20.6958C18.0438 20.8969 17.5229 21.0003 16.997 21H5.005C4.47907 21.0003 3.95824 20.8969 3.47227 20.6958C2.98631 20.4947 2.54474 20.1997 2.1728 19.8279C1.80087 19.4561 1.50585 19.0146 1.30461 18.5286C1.10338 18.0427 0.999869 17.5219 1 16.996V10.288C1.00023 9.53869 1.16853 8.79898 1.4925 8.12334C1.81648 7.44769 2.28788 6.85332 2.872 6.384L2.874 6.374Z" stroke="#FF697C" stroke-width="2" stroke-linecap="round" stroke-linejoin="round"/>
</g>
<defs>
<clipPath id="clip0_4518_936">
<rect width="22" height="22" fill="white"/>
</clipPath>
</defs>
</svg>
