<svg width="22" height="23" viewBox="0 0 22 23" fill="none" xmlns="http://www.w3.org/2000/svg">
<g clip-path="url(#clip0_4518_956)">
<path d="M5.347 9.29999H10.958M6.753 13.5H9.753M18.155 1.39999C16.585 1.39999 15.315 2.66999 15.315 4.23999V19.45C15.315 20.11 14.655 20.52 13.985 20.48C13.145 20.42 12.724 19.92 11.754 19.94C10.834 19.94 10.304 20.44 9.904 20.75C9.534 21.03 8.933 21.4 8.163 21.4C7.393 21.4 6.793 21.04 6.423 20.75C6.023 20.44 5.502 19.94 4.572 19.94C3.602 19.92 3.172 20.42 2.332 20.48C1.66 20.52 1 20.11 1 19.45V4.66999C1 2.85999 2.45 1.39999 4.26 1.39999H18.155ZM21.001 4.23999V15.26C21.001 15.91 20.341 16.33 19.671 16.29C18.831 16.23 18.411 15.77 17.35 15.75C16.43 15.73 15.71 16.25 15.31 16.56V4.23999C15.31 2.66999 16.58 1.39999 18.15 1.39999C19.72 1.39999 20.99 2.66999 20.99 4.23999H21.001Z" stroke="#798486" stroke-width="1.5" stroke-miterlimit="10" stroke-linecap="round"/>
</g>
<defs>
<clipPath id="clip0_4518_956">
<rect width="22" height="22" fill="white" transform="translate(0 0.399994)"/>
</clipPath>
</defs>
</svg>
