<svg width="22" height="22" viewBox="0 0 22 22" fill="none" xmlns="http://www.w3.org/2000/svg">
<path d="M1.5 6.16012C1.5 5.58396 1.5 5.29588 1.57916 5.02296C1.65831 4.75003 1.81245 4.50666 2.12072 4.01991L2.85547 2.85979C3.43143 1.95037 3.71942 1.49566 4.16973 1.24783C4.62004 1 5.15827 1 6.23474 1H15.7653C16.8417 1 17.38 1 17.8303 1.24783C18.2806 1.49566 18.5686 1.95037 19.1445 2.85979L19.8793 4.01991C20.1875 4.50666 20.3417 4.75003 20.4208 5.02296C20.5 5.29588 20.5 5.58396 20.5 6.16012V17C20.5 18.8856 20.5 19.8284 19.9142 20.4142C19.3284 21 18.3856 21 16.5 21H5.5C3.61438 21 2.67157 21 2.08579 20.4142C1.5 19.8284 1.5 18.8856 1.5 17V6.16012Z" fill="#FFDEE2" stroke="#FF697C" stroke-width="2"/>
<path d="M7 12.5C7 13.4283 7.42143 14.3185 8.17157 14.9749C8.92172 15.6313 9.93913 16 11 16C12.0609 16 13.0783 15.6313 13.8284 14.9749C14.5786 14.3185 15 13.4283 15 12.5" stroke="#FF697C" stroke-width="2" stroke-linecap="round"/>
<path d="M1.5 6H20.5" stroke="#FF697C" stroke-width="2" stroke-linecap="round"/>
</svg>
