<svg width="23" height="22" viewBox="0 0 23 22" fill="none" xmlns="http://www.w3.org/2000/svg">
<path d="M7 12.5C7 13.4283 7.42143 14.3185 8.17157 14.9749C8.92172 15.6313 9.93913 16 11 16C12.0609 16 13.0783 15.6313 13.8284 14.9749C14.5786 14.3185 15 13.4283 15 12.5" stroke="#798486" stroke-width="1.5" stroke-linecap="round"/>
<path d="M2 6.16012C2 5.58396 2 5.29589 2.07916 5.02296C2.15831 4.75003 2.31245 4.50666 2.62072 4.01991L3.35547 2.85979C3.93143 1.95037 4.21942 1.49566 4.66973 1.24783C5.12004 1 5.65827 1 6.73474 1H16.2653C17.3417 1 17.88 1 18.3303 1.24783C18.7806 1.49566 19.0686 1.95037 19.6445 2.85979L20.3793 4.01991C20.6875 4.50666 20.8417 4.75003 20.9208 5.02296C21 5.29589 21 5.58396 21 6.16012V17C21 18.8856 21 19.8284 20.4142 20.4142C19.8284 21 18.8856 21 17 21H6C4.11438 21 3.17157 21 2.58579 20.4142C2 19.8284 2 18.8856 2 17V6.16012Z" stroke="#798486" stroke-width="1.5"/>
<path d="M2 6H21" stroke="#798486" stroke-width="1.5" stroke-linecap="round"/>
</svg>
