<svg width="24" height="25" viewBox="0 0 24 25" fill="none" xmlns="http://www.w3.org/2000/svg">
<path d="M15 23V17C15 16.4477 14.5523 16 14 16H10C9.44772 16 9 16.4477 9 17V23" stroke="#FF697C" stroke-width="2" stroke-linecap="round" stroke-linejoin="round"/>
<path d="M3 11V19C3 20.8856 3 21.8284 3.58579 22.4142C4.17157 23 5.11438 23 7 23H16C17.8856 23 18.8284 23 19.4142 22.4142C20 21.8284 20 20.8856 20 19V11" stroke="#FF697C" stroke-width="2"/>
<path d="M3.07164 2.52509C3.25062 1.79291 3.34011 1.42682 3.61197 1.21341C3.88383 1 4.2607 1 5.01444 1H18.9856C19.7393 1 20.1162 1 20.388 1.21341C20.6599 1.42682 20.7494 1.79291 20.9284 2.52509L22.5028 8.96602C22.6801 9.69124 22.7687 10.0539 22.6679 10.3363C22.5949 10.5406 22.4575 10.7156 22.2764 10.835C22.026 11 21.6523 11 20.9048 11V11C19.8692 11 19.3514 11 18.9375 10.7989C18.6333 10.6511 18.3715 10.4285 18.1767 10.152C17.9116 9.77585 17.8284 9.26537 17.6621 8.2444V8.2444C17.6146 7.95326 17.5909 7.80769 17.5484 7.7842C17.5183 7.76758 17.4817 7.76758 17.4516 7.7842C17.4091 7.80769 17.3854 7.95326 17.3379 8.2444L17.2329 8.88896C17.1664 9.29731 17.1331 9.50149 17.0718 9.67304C16.8316 10.345 16.2516 10.8382 15.5498 10.9671C15.3706 11 15.1637 11 14.75 11V11C14.3363 11 14.1294 11 13.9502 10.9671C13.2484 10.8382 12.6684 10.345 12.4282 9.67304C12.3669 9.50149 12.3336 9.29731 12.2671 8.88896L12.1621 8.2444C12.1146 7.95326 12.0909 7.80769 12.0484 7.7842C12.0183 7.76758 11.9817 7.76758 11.9516 7.7842C11.9091 7.80769 11.8854 7.95326 11.8379 8.2444L11.7329 8.88896C11.6664 9.29731 11.6331 9.50149 11.5718 9.67304C11.3316 10.345 10.7516 10.8382 10.0498 10.9671C9.87061 11 9.66374 11 9.25 11V11C8.83626 11 8.62939 11 8.45021 10.9671C7.74835 10.8382 7.16836 10.345 6.92821 9.67304C6.86691 9.50149 6.83364 9.29731 6.76709 8.88896L6.66205 8.2444C6.61461 7.95326 6.59088 7.80769 6.54835 7.7842C6.51826 7.76758 6.48174 7.76758 6.45165 7.7842C6.40912 7.80769 6.38539 7.95326 6.33795 8.2444V8.2444C6.17157 9.26537 6.08838 9.77585 5.82333 10.152C5.62849 10.4285 5.36672 10.6511 5.06248 10.7989C4.64859 11 4.13079 11 3.09519 11V11C2.34773 11 1.974 11 1.7236 10.835C1.54247 10.7156 1.40507 10.5406 1.33213 10.3363C1.23128 10.0539 1.31992 9.69124 1.4972 8.96602L3.07164 2.52509Z" fill="#FFDEE2" stroke="#FF697C" stroke-width="2"/>
</svg>
