<svg width="22" height="23" viewBox="0 0 22 23" fill="none" xmlns="http://www.w3.org/2000/svg">
<g clip-path="url(#clip0_4518_989)">
<g clip-path="url(#clip1_4518_989)">
<path d="M11 21.8C7.225 21.8 4 21.204 4 18.815C4 16.425 7.205 14.22 11 14.22C14.777 14.22 18 16.404 18 18.793C18 21.181 14.798 21.8 11 21.8ZM10.997 10.91C13.474 10.91 15.483 8.871 15.483 6.355C15.483 3.839 13.474 1.8 10.997 1.8C8.519 1.8 6.51 3.84 6.51 6.355C6.5 8.862 8.496 10.901 10.965 10.91H10.997Z" fill="#FFDEE2" stroke="#FF697C" stroke-width="2" stroke-miterlimit="10"/>
</g>
</g>
<defs>
<clipPath id="clip0_4518_989">
<rect width="22" height="22" fill="white" transform="translate(0 0.800003)"/>
</clipPath>
<clipPath id="clip1_4518_989">
<rect width="16" height="22" fill="white" transform="translate(3 0.800003)"/>
</clipPath>
</defs>
</svg>
