<svg width="23" height="22" viewBox="0 0 23 22" fill="none" xmlns="http://www.w3.org/2000/svg">
<circle cx="11.0258" cy="6" r="3.25" stroke="#798486" stroke-width="1.5" stroke-linecap="round"/>
<path opacity="0.35" d="M14.1184 4.125C14.3904 3.65397 14.7959 3.27416 15.2837 3.0336C15.7715 2.79304 16.3197 2.70253 16.8589 2.77353C17.3982 2.84452 17.9043 3.07382 18.3132 3.43244C18.7221 3.79106 19.0155 4.26288 19.1563 4.78825C19.2971 5.31361 19.2789 5.86892 19.1041 6.38396C18.9292 6.89899 18.6056 7.35062 18.1741 7.68172C17.7426 8.01283 17.2226 8.20854 16.6799 8.24411C16.1371 8.27968 15.596 8.15352 15.125 7.88157" stroke="#798486" stroke-width="1.5"/>
<path opacity="0.35" d="M7.90733 4.125C7.63538 3.65397 7.22986 3.27416 6.74205 3.0336C6.25424 2.79304 5.70606 2.70253 5.16681 2.77353C4.62756 2.84452 4.12148 3.07382 3.71256 3.43244C3.30363 3.79106 3.01023 4.26288 2.86946 4.78825C2.72869 5.31361 2.74687 5.86892 2.9217 6.38396C3.09653 6.89899 3.42016 7.35062 3.85166 7.68172C4.28317 8.01283 4.80316 8.20854 5.3459 8.24411C5.88863 8.27968 6.42973 8.15352 6.90076 7.88157" stroke="#798486" stroke-width="1.5"/>
<path d="M11.0258 12C16.4817 12 17.6852 16.86 17.9506 19.004C18.0185 19.5521 17.578 20 17.0258 20H5.02576C4.47347 20 4.03302 19.5521 4.10088 19.004C4.36634 16.86 5.5698 12 11.0258 12Z" stroke="#798486" stroke-width="1.5" stroke-linecap="round"/>
<path opacity="0.35" d="M15.8842 10.4238L15.8842 9.92383L15.8841 9.92383L15.8842 10.4238ZM21.1703 16.1758L21.6588 16.0692L21.6588 16.0692L21.1703 16.1758ZM18.1849 17.2637L17.7046 17.4026L17.8091 17.7637H18.1849V17.2637ZM12.5834 11.9102L12.2141 11.5731L11.5939 12.2525L12.5014 12.4034L12.5834 11.9102ZM15.8842 10.4238V10.9238C17.4613 10.9238 18.5403 11.7534 19.2992 12.859C20.0673 13.9779 20.4768 15.343 20.6818 16.2824L21.1703 16.1758L21.6588 16.0692C21.4426 15.0784 20.9985 13.5675 20.1237 12.293C19.2396 11.0051 17.8861 9.92383 15.8842 9.92383V10.4238ZM21.1703 16.1758L20.6818 16.2824C20.7328 16.5162 20.558 16.7637 20.2513 16.7637V17.2637V17.7637C21.1279 17.7637 21.86 16.9914 21.6588 16.0692L21.1703 16.1758ZM20.2513 17.2637V16.7637H18.1849V17.2637V17.7637H20.2513V17.2637ZM18.1849 17.2637L18.6652 17.1247C18.0297 14.928 16.4627 12.0481 12.6654 11.4169L12.5834 11.9102L12.5014 12.4034C15.7497 12.9433 17.1183 15.3759 17.7046 17.4026L18.1849 17.2637ZM12.5834 11.9102L12.9527 12.2472C13.6659 11.4659 14.6071 10.9239 15.8842 10.9238L15.8842 10.4238L15.8841 9.92383C14.2789 9.92388 13.0824 10.6218 12.2141 11.5731L12.5834 11.9102Z" fill="#798486"/>
<path opacity="0.35" d="M6.30762 10.4238L6.30762 9.92383L6.30759 9.92383L6.30762 10.4238ZM9.60938 11.9102L9.69132 12.4034L10.5989 12.2526L9.97868 11.5731L9.60938 11.9102ZM4.00781 17.2637V17.7637H4.38365L4.48811 17.4026L4.00781 17.2637ZM1.94043 17.2637L1.94031 17.7637H1.94043V17.2637ZM1.02148 16.1758L0.532981 16.0692L0.532981 16.0692L1.02148 16.1758ZM6.30762 10.4238V10.9238C7.58499 10.9238 8.52688 11.4658 9.24007 12.2472L9.60938 11.9102L9.97868 11.5731C9.11017 10.6215 7.91299 9.92383 6.30762 9.92383V10.4238ZM9.60938 11.9102L9.52743 11.4169C5.72968 12.0479 4.16311 14.9279 3.52751 17.1247L4.00781 17.2637L4.48811 17.4026C5.07455 15.3758 6.44279 12.9431 9.69132 12.4034L9.60938 11.9102ZM4.00781 17.2637V16.7637H1.94043V17.2637V17.7637H4.00781V17.2637ZM1.94043 17.2637L1.94055 16.7637C1.63379 16.7636 1.45902 16.516 1.50999 16.2824L1.02148 16.1758L0.532981 16.0692C0.331713 16.9915 1.06407 17.7635 1.94031 17.7637L1.94043 17.2637ZM1.02148 16.1758L1.50999 16.2824C1.71497 15.3431 2.12446 13.978 2.8926 12.8591C3.65152 11.7536 4.73055 10.9239 6.30765 10.9238L6.30762 10.4238L6.30759 9.92383C4.30571 9.92394 2.95227 11.0052 2.06817 12.2931C1.19328 13.5676 0.74919 15.0784 0.532981 16.0692L1.02148 16.1758Z" fill="#798486"/>
</svg>
