<svg width="22" height="22" viewBox="0 0 22 22" fill="none" xmlns="http://www.w3.org/2000/svg">
<circle cx="10.5258" cy="6" r="3" fill="#FFDEE2" stroke="#FF697C" stroke-width="2" stroke-linecap="round"/>
<path opacity="0.35" d="M13.3607 4.25C13.6079 3.82179 13.9766 3.47651 14.42 3.25782C14.8635 3.03913 15.3618 2.95685 15.8521 3.02139C16.3423 3.08593 16.8024 3.29438 17.1741 3.6204C17.5459 3.94642 17.8126 4.37535 17.9406 4.85295C18.0685 5.33056 18.052 5.83539 17.8931 6.3036C17.7341 6.77181 17.4399 7.18238 17.0477 7.48338C16.6554 7.78439 16.1827 7.96231 15.6893 7.99465C15.1959 8.02699 14.704 7.91229 14.2758 7.66506" stroke="#FF697C" stroke-width="2"/>
<path opacity="0.35" d="M7.19082 4.25C6.94359 3.82179 6.57494 3.47651 6.13148 3.25782C5.68802 3.03913 5.18966 2.95685 4.69944 3.02139C4.20922 3.08593 3.74914 3.29438 3.37739 3.6204C3.00564 3.94642 2.73892 4.37535 2.61094 4.85295C2.48297 5.33056 2.49949 5.83539 2.65843 6.3036C2.81737 6.77181 3.11158 7.18238 3.50385 7.48338C3.89613 7.78439 4.36885 7.96231 4.86225 7.99465C5.35564 8.02699 5.84755 7.91229 6.27576 7.66506" stroke="#FF697C" stroke-width="2"/>
<path d="M10.5258 12C15.9817 12 17.1852 16.86 17.4506 19.004C17.5185 19.5521 17.078 20 16.5258 20H4.52576C3.97347 20 3.53302 19.5521 3.60088 19.004C3.86634 16.86 5.0698 12 10.5258 12Z" fill="#FFDEE2" stroke="#FF697C" stroke-width="2" stroke-linecap="round"/>
<g opacity="0.35">
<path d="M15.3842 10.4238C18.9633 10.4238 20.2491 14.2456 20.6703 16.1758C20.7964 16.7538 20.343 17.2637 19.7513 17.2637H17.6849C17.074 15.1519 15.6062 12.4957 12.0834 11.9102C12.8742 11.0438 13.943 10.4239 15.3842 10.4238Z" fill="#FFDEE2"/>
<path d="M15.3842 10.4238L15.3842 9.92383L15.3841 9.92383L15.3842 10.4238ZM20.6703 16.1758L21.1588 16.0692L21.1588 16.0692L20.6703 16.1758ZM17.6849 17.2637L17.2046 17.4026L17.3091 17.7637H17.6849V17.2637ZM12.0834 11.9102L11.7141 11.5731L11.0939 12.2525L12.0014 12.4034L12.0834 11.9102ZM15.3842 10.4238V10.9238C16.9613 10.9238 18.0403 11.7534 18.7992 12.859C19.5673 13.9779 19.9768 15.343 20.1818 16.2824L20.6703 16.1758L21.1588 16.0692C20.9426 15.0784 20.4985 13.5675 19.6237 12.293C18.7396 11.0051 17.3861 9.92383 15.3842 9.92383V10.4238ZM20.6703 16.1758L20.1818 16.2824C20.2328 16.5162 20.058 16.7637 19.7513 16.7637V17.2637V17.7637C20.6279 17.7637 21.36 16.9914 21.1588 16.0692L20.6703 16.1758ZM19.7513 17.2637V16.7637H17.6849V17.2637V17.7637H19.7513V17.2637ZM17.6849 17.2637L18.1652 17.1247C17.5297 14.928 15.9627 12.0481 12.1654 11.4169L12.0834 11.9102L12.0014 12.4034C15.2497 12.9433 16.6183 15.3759 17.2046 17.4026L17.6849 17.2637ZM12.0834 11.9102L12.4527 12.2472C13.1659 11.4659 14.1071 10.9239 15.3842 10.9238L15.3842 10.4238L15.3841 9.92383C13.7789 9.92388 12.5824 10.6218 11.7141 11.5731L12.0834 11.9102Z" fill="#FF697C"/>
</g>
<g opacity="0.35">
<path d="M5.80792 10.4238C7.24911 10.4238 8.31789 11.0438 9.1087 11.9102C5.58608 12.4957 4.11911 15.152 3.50812 17.2637H1.44073C0.849113 17.2637 0.395653 16.7538 0.52179 16.1758C0.943006 14.2456 2.22877 10.4238 5.80792 10.4238Z" fill="#FFDEE2"/>
<path d="M5.80792 10.4238L5.80792 9.92383H5.80792V10.4238ZM9.1087 11.9102L9.19069 12.4034L10.0982 12.2525L9.47799 11.5731L9.1087 11.9102ZM3.50812 17.2637V17.7637H3.88396L3.98842 17.4026L3.50812 17.2637ZM0.52179 16.1758L0.0332866 16.0692L0.0332857 16.0692L0.52179 16.1758ZM5.80792 10.4238L5.80792 10.9238C7.08497 10.9238 8.02615 11.4659 8.73942 12.2472L9.1087 11.9102L9.47799 11.5731C8.60962 10.6218 7.41324 9.92383 5.80792 9.92383L5.80792 10.4238ZM9.1087 11.9102L9.02672 11.4169C5.22947 12.0481 3.66337 14.9282 3.02782 17.1247L3.50812 17.2637L3.98842 17.4026C4.57485 15.3759 5.94269 12.9433 9.19069 12.4034L9.1087 11.9102ZM3.50812 17.2637V16.7637H1.44073V17.2637V17.7637H3.50812V17.2637ZM1.44073 17.2637V16.7637C1.13409 16.7637 0.959279 16.5162 1.01029 16.2824L0.52179 16.1758L0.0332857 16.0692C-0.167972 16.9914 0.564137 17.7637 1.44073 17.7637V17.2637ZM0.52179 16.1758L1.01029 16.2824C1.21529 15.343 1.62474 13.9779 2.39285 12.859C3.15174 11.7534 4.23075 10.9238 5.80792 10.9238V10.4238V9.92383C3.80594 9.92383 2.45249 11.0051 1.56841 12.293C0.693549 13.5675 0.249504 15.0784 0.0332866 16.0692L0.52179 16.1758Z" fill="#FF697C"/>
</g>
</svg>
